<svg width="22" height="23" viewBox="0 0 22 23" fill="none" xmlns="http://www.w3.org/2000/svg">
    <path d="M11 0.930176C4.93032 0.930176 0 5.8687 0 11.9485C0 18.0283 4.93032 22.9668 11 22.9668C17.0697 22.9668 22 18.0283 22 11.9485C22 5.8687 17.0697 0.930176 11 0.930176ZM11 1.88845C16.5537 1.88845 21.0452 6.38746 21.0452 11.9485C21.0452 17.5114 16.5537 22.0104 11 22.0104C5.44821 22.0104 0.956685 17.5114 0.956685 11.9485C0.956685 6.38746 5.44821 1.88845 11 1.88845ZM11.7552 4.76329C10.4878 4.76329 9.52542 5.17829 8.9322 5.91398C8.34087 6.64778 8.12994 7.62869 8.12994 8.70392V9.55279H7.17326C6.91149 9.55279 6.69492 9.76784 6.69492 10.0319V12.4276C6.69492 12.6917 6.91149 12.9068 7.17326 12.9068H8.12994V18.6564C8.12994 18.9205 8.34463 19.1356 8.60829 19.1356H11.4783C11.742 19.1356 11.9567 18.9205 11.9567 18.6564V12.9068H13.8701C14.0979 12.9068 14.2938 12.7464 14.339 12.5219L14.8173 10.1262C14.8456 9.98666 14.8079 9.83952 14.7175 9.73011C14.6271 9.61693 14.4915 9.55279 14.3484 9.55279H11.9567V8.50397C11.9567 8.27006 11.9718 8.27194 12.0395 8.22856C12.1073 8.18517 12.3484 8.11537 12.7759 8.11537H14.3484C14.6121 8.11537 14.8267 7.90033 14.8267 7.63624V5.72157C14.8267 5.51784 14.6987 5.33675 14.5085 5.27072C14.5085 5.27072 13.1318 4.76329 11.7552 4.76329ZM11.7552 5.72157C12.661 5.72157 13.5009 5.96679 13.8701 6.07998V7.15898H12.7759C12.275 7.15898 11.8682 7.1986 11.5179 7.42496C11.1695 7.65133 11 8.08896 11 8.50397V10.0319C11 10.296 11.2147 10.5111 11.4783 10.5111H13.7646L13.4783 11.9485H11.4783C11.2147 11.9485 11 12.1635 11 12.4276V18.1773H9.08663V12.4276C9.08663 12.1635 8.87194 11.9485 8.60829 11.9485H7.6516V10.5111H8.60829C8.87194 10.5111 9.08663 10.296 9.08663 10.0319V8.70392C9.08663 7.75508 9.28249 7.00619 9.67797 6.51384C10.0716 6.02339 10.6836 5.72157 11.7552 5.72157Z" fill="black" />
</svg>