<svg width="22" height="23" viewBox="0 0 22 23" fill="none" xmlns="http://www.w3.org/2000/svg">
    <path d="M11 0.930176C4.93032 0.930176 0 5.8687 0 11.9485C0 18.0283 4.93032 22.9668 11 22.9668C17.0697 22.9668 22 18.0283 22 11.9485C22 5.8687 17.0697 0.930176 11 0.930176ZM11 1.88845C16.5537 1.88845 21.0452 6.38746 21.0452 11.9485C21.0452 17.5114 16.5537 22.0104 11 22.0104C5.44821 22.0104 0.956685 17.5114 0.956685 11.9485C0.956685 6.38746 5.44821 1.88845 11 1.88845ZM6.69492 5.72157C5.9096 5.72157 5.26177 6.37048 5.26177 7.15898C5.26177 7.9456 5.9096 8.59451 6.69492 8.59451C7.48211 8.59451 8.12994 7.9456 8.12994 7.15898C8.12994 6.37048 7.48211 5.72157 6.69492 5.72157ZM6.69492 6.67984C6.96422 6.67984 7.17326 6.88923 7.17326 7.15898C7.17326 7.42685 6.96422 7.63624 6.69492 7.63624C6.4275 7.63624 6.21846 7.42685 6.21846 7.15898C6.21846 6.88923 6.4275 6.67984 6.69492 6.67984ZM5.74011 9.07365C5.47646 9.07365 5.26177 9.2887 5.26177 9.55279V16.7399C5.26177 17.004 5.47646 17.219 5.74011 17.219H7.6516C7.91525 17.219 8.12994 17.004 8.12994 16.7399V9.55279C8.12994 9.2887 7.91525 9.07365 7.6516 9.07365H5.74011ZM9.56497 9.07365C9.30132 9.07365 9.08663 9.2887 9.08663 9.55279V16.7399C9.08663 17.004 9.30132 17.219 9.56497 17.219H11.4783C11.742 17.219 11.9567 17.004 11.9567 16.7399V13.1463C11.9567 12.4861 12.4934 11.9485 13.1525 11.9485C13.8117 11.9485 14.3484 12.4861 14.3484 13.1463V16.7399C14.3484 17.004 14.5631 17.219 14.8267 17.219H16.7401C17.0038 17.219 17.2185 17.004 17.2185 16.7399V12.6672C17.2185 10.6903 15.6064 9.07365 13.6309 9.07365C13.0169 9.07365 12.4633 9.27549 11.9567 9.54713C11.9548 9.28493 11.7401 9.07365 11.4783 9.07365H9.56497ZM6.21846 10.0319H7.17326V16.2607H6.21846V10.0319ZM10.0433 10.0319H11V10.4243C11 10.6167 11.1149 10.7884 11.2919 10.8657C11.467 10.9393 11.6723 10.9034 11.8098 10.7676C12.2844 10.313 12.9209 10.0319 13.6309 10.0319C15.0904 10.0319 16.2618 11.2053 16.2618 12.6672V16.2607H15.3051V13.1463C15.3051 11.9636 14.3333 10.9902 13.1525 10.9902C11.9718 10.9902 11 11.9636 11 13.1463V16.2607H10.0433V10.0319Z" fill="black" />
</svg>
