<svg width="22" height="23" viewBox="0 0 22 23" fill="none" xmlns="http://www.w3.org/2000/svg">
    <path d="M11 0.930176C4.93032 0.930176 0 5.8687 0 11.9485C0 18.0283 4.93032 22.9668 11 22.9668C17.0697 22.9668 22 18.0283 22 11.9485C22 5.8687 17.0697 0.930176 11 0.930176ZM11 1.88845C16.5537 1.88845 21.0452 6.38746 21.0452 11.9485C21.0452 17.5114 16.5537 22.0104 11 22.0104C5.44821 22.0104 0.956685 17.5114 0.956685 11.9485C0.956685 6.38746 5.44821 1.88845 11 1.88845ZM13.7232 6.70625C12.0019 6.70625 10.5951 8.11537 10.5951 9.83952C10.5951 9.85084 10.5989 9.86404 10.5989 9.87536C8.77589 9.63202 7.16196 8.73033 6.05273 7.36837C5.95292 7.24576 5.80038 7.18162 5.64407 7.19294C5.48776 7.20614 5.34652 7.2948 5.2693 7.42873C5 7.89278 4.84369 8.43417 4.84369 9.00763C4.84369 9.51506 4.98682 9.98854 5.20339 10.4149C4.98305 10.462 4.82298 10.6563 4.82298 10.8827V10.9166C4.82298 11.8428 5.258 12.6446 5.8983 13.2199C5.76648 13.3463 5.7194 13.5349 5.77401 13.7104C6.03955 14.5423 6.66478 15.193 7.44256 15.5628C6.81921 15.8552 6.15066 16.0646 5.41431 16.0646C5.21846 16.0646 5.02825 16.0532 4.83992 16.0287C4.6177 16.0023 4.40678 16.1325 4.33333 16.3437C4.25612 16.555 4.3371 16.7889 4.52542 16.9096C5.77024 17.7095 7.25424 18.1773 8.84181 18.1773C11.4105 18.1773 13.4426 17.0945 14.7985 15.5552C16.1563 14.0122 16.8606 12.0221 16.8606 10.147C16.8606 10.0904 16.8588 10.0376 16.8569 9.98288C17.322 9.6075 17.7608 9.19438 18.0923 8.69638C18.2072 8.52849 18.2015 8.30778 18.0791 8.14367C17.9586 7.98144 17.7495 7.91165 17.5537 7.97201C17.6328 7.8211 17.742 7.69094 17.7928 7.52683C17.855 7.33819 17.791 7.13069 17.6365 7.00619C17.4821 6.88357 17.2674 6.86659 17.096 6.96846C16.678 7.21557 16.2072 7.38157 15.7213 7.49476C15.1733 7.02694 14.4934 6.70625 13.7232 6.70625ZM13.7232 7.66453C14.3503 7.66453 14.9134 7.92674 15.307 8.34928C15.42 8.4719 15.5876 8.5266 15.7476 8.49454C15.8211 8.47944 15.8795 8.43417 15.951 8.41531C15.9416 8.42097 15.936 8.43228 15.9266 8.43794C15.742 8.54924 15.6535 8.77183 15.7137 8.97933C15.774 9.18683 15.9642 9.3302 16.1808 9.32643C16.1469 9.35095 16.1281 9.39245 16.096 9.41697C15.9642 9.51129 15.8889 9.66409 15.8964 9.82443C15.9002 9.93195 15.904 10.0395 15.904 10.147C15.904 11.7787 15.2768 13.5632 14.081 14.9214C12.887 16.2777 11.1488 17.219 8.84181 17.219C8.05273 17.219 7.30885 17.0606 6.60075 16.821C7.48211 16.6324 8.31638 16.3211 9 15.7835C9.15819 15.6571 9.22222 15.4458 9.15631 15.2553C9.09228 15.0629 8.91525 14.9327 8.71375 14.929C8.03766 14.9158 7.51412 14.5309 7.12618 14.0367C7.2693 14.0178 7.4162 14.0178 7.55367 13.9801C7.76648 13.9216 7.91149 13.7236 7.90395 13.5029C7.89642 13.2803 7.73823 13.0916 7.51977 13.0501C6.7307 12.8879 6.11488 12.2956 5.88889 11.5278C6.09228 11.5769 6.2693 11.6863 6.48588 11.6938C6.69868 11.6995 6.89265 11.5656 6.95669 11.3618C7.0226 11.1581 6.9435 10.9374 6.76836 10.8167C6.18456 10.4262 5.80038 9.76406 5.80038 9.00763C5.80038 8.84917 5.88512 8.72467 5.91714 8.57942C7.27495 9.92629 9.08286 10.8204 11.1205 10.9242C11.2693 10.9317 11.4143 10.8676 11.5104 10.7506C11.6083 10.6356 11.6422 10.479 11.6083 10.3337C11.5725 10.1772 11.5518 10.0112 11.5518 9.83952C11.5518 8.63224 12.5179 7.66453 13.7232 7.66453Z" fill="black" />
</svg>
